<svg xmlns="http://www.w3.org/2000/svg" viewBox="0 0 136.36 5.33" preserveAspectRatio = "none">
  <defs>
    <style>
      .cls-1 {
        isolation: isolate;
      }

      .cls-2 {
        fill: #cfcfcf;
        mix-blend-mode: multiply;
      }

      .cls-3 {
        fill: #fff;
      }

      .cls-4 {
        fill: none;
      }
    </style>
  </defs>
  <title>Untitled-2</title>
  <g class="cls-1">
    <g id="Layer_1" data-name="Layer 1">
      <g>
        <path class="cls-2" d="M651.38,316v3.63a3.43,3.43,0,0,1-1.16.2,6,6,0,0,1-2,.09c.3-.11-1.57-.62-1.86-.41.34.26-1.46.31-1.88-.07-.29.09-2.57-.19-1.84-.24.13-.07-2-.24-1.9-.08-.16.06-1.74.19-1.74,0,0,.19-1.73,0-1.73-.18s-1.77.65-1.77.22c0,.37-1.77.77-1.77.25,0,.12-1.66-.44-1.66-.69s-1.74-.85-1.74,0c0,0-1.79.18-1.79.36,0-.06-1.76-.11-1.76.13s-1.81-.25-1.81-.34c0,.34-1.87-.24-1.87.18,0-.27-1.81-1-1.81-.44,0,.05-1.89.82-1.89.56s-1.82-.46-1.82-.53c0,.66-1.85.22-1.85.3s-1.86-.27-1.86-.21-1.82.2-1.82.3a4.52,4.52,0,0,0-1.88-.24c0,.09-1.91-.51-1.91-.2,0,0-1.87-.16-1.87.06s-1.78.38-1.78.22-1.5.75-1.5.83c0,.46-2.06-.52-2.06-.52,0,.29-1.82-.06-1.82,0a9.37,9.37,0,0,0-1.59.6s-1.73-.25-1.73.27a5,5,0,0,1-1.8.11c0,.29-1.92-.33-1.92-.43,0,.16-1.74.08-1.74.47,0,0-1.8,0-1.8-.29,0,0-1.77.17-1.77-.06,0,.13-1.88.34-1.88.16,0,.5-2,.32-2-.23,0,.31-2.16-.11-2.16,0,0-.19-1.84-.38-1.84-.49a5.78,5.78,0,0,1-1.63-.54c0,.71-1.84.08-1.84.25s-1.77-.29-1.77,0-1.82-.27-1.82-.24-1.6.71-1.6.74-1.8-.36-1.8-.12a10.85,10.85,0,0,0-1.68.26c0,.15-1.73.39-1.73.14s-1.71.3-1.71-.15c0-.15-1.75.12-1.75-.07,0,.13-1.6.73-1.6.27,0-.21-.85.32-.85.88a7.3,7.3,0,0,0-1.92-.12s-1.72,0-1.72,0-1.85.88-1.85.67c0,.09-1.78,0-1.78-.32a8.28,8.28,0,0,1-1.86-.06c0,.27-1.51-.49-1.51-.6s-1.59-.55-1.59-.45c0,.53-1.91.39-1.91.21s-1.76-.54-1.76-.09c0,0-1.8-.19-1.8.09s-1.69,0-1.69-.42a7.7,7.7,0,0,0-1.81.34s-1.75-.73-1.75-.11c0-.65-1.76-.32-1.76-.06s-2-.24-1.82-.42a4.37,4.37,0,0,1-1.74-.12c.1-.32-1.28,0-1.76.28-.28-.24-1.63.4-1.77.08-.78,0-2.05-.38-1.68-.07-1.64.14-2.4.32-1.64.48a4.46,4.46,0,0,1-1.77-.38c-.22.14-1.16.89-1.53.57a6.5,6.5,0,0,1-1.6-.28,5.58,5.58,0,0,0-1.82.09c.82.26-.46.15-1.65.15a1.6,1.6,0,0,1-.74.29V316Z" transform="translate(-515.02 -316)"/>
        <path class="cls-3" d="M515,316H651.38v2.69a3.43,3.43,0,0,1-1.16.2,6,6,0,0,1-2,.09c.3-.11-1.57-.62-1.86-.41.34.26-1.46.31-1.88-.07-.29.09-2.57-.19-1.84-.24.13-.07-2-.24-1.9-.08-.17.06-1.74.18-1.74,0,0,.19-1.73,0-1.73-.18s-1.77.65-1.77.22c0,.37-1.77.77-1.77.25,0,.12-1.66-.45-1.66-.69s-1.74-.85-1.74,0c0,0-1.79.19-1.79.36,0-.05-1.76-.1-1.76.14S625,318,625,317.91c0,.34-1.87-.24-1.87.17,0-.26-1.81-1-1.81-.43,0,.05-1.89.82-1.89.56s-1.82-.46-1.82-.53c0,.66-1.85.22-1.85.3s-1.86-.27-1.86-.21-1.82.2-1.82.29a4.87,4.87,0,0,0-1.88-.24c0,.1-1.91-.5-1.91-.19,0,0-1.87-.16-1.87.06s-1.78.38-1.78.22-1.5.75-1.5.83c0,.45-2.06-.52-2.06-.52,0,.29-1.82-.06-1.82,0a10.24,10.24,0,0,0-1.59.59s-1.73-.25-1.73.27a4.77,4.77,0,0,1-1.8.12c0,.29-1.92-.33-1.92-.43,0,.16-1.74.08-1.74.47,0,0-1.8,0-1.8-.29,0,0-1.77.17-1.77-.06,0,.13-1.88.34-1.88.16,0,.5-2,.32-2-.23,0,.3-2.16-.11-2.16,0,0-.19-1.84-.38-1.84-.49a5.51,5.51,0,0,1-1.63-.55c0,.72-1.84.09-1.84.26s-1.77-.29-1.77,0-1.82-.27-1.82-.24-1.6.71-1.6.74-1.8-.36-1.8-.12a10.85,10.85,0,0,0-1.68.26c0,.15-1.73.39-1.73.14s-1.71.3-1.71-.15c0-.15-1.75.12-1.75-.07,0,.13-1.6.73-1.6.27,0-.21-.85.32-.85.88a7.3,7.3,0,0,0-1.92-.12s-1.72,0-1.72,0-1.85.87-1.85.67c0,.09-1.78,0-1.78-.32a7.73,7.73,0,0,1-1.86-.07c0,.28-1.51-.48-1.51-.59s-1.59-.55-1.59-.45c0,.53-1.91.39-1.91.21s-1.76-.54-1.76-.09c0,0-1.8-.19-1.8.09s-1.69,0-1.69-.42a7.7,7.7,0,0,0-1.81.34s-1.75-.73-1.75-.11c0-.65-1.76-.32-1.76-.06s-2.18-.29-1.78-.44a4,4,0,0,1-1.78-.11c.1-.31-1.28.06-1.76.29-.28-.24-1.63.4-1.77.07-.78.05-2.05-.38-1.68-.06-1.64.14-2.4.31-1.64.48a4.46,4.46,0,0,1-1.77-.38c-.22.14-1.16.89-1.53.56a6,6,0,0,1-1.6-.27,5.58,5.58,0,0,0-1.82.09c.82.26-.46.15-1.65.15a1.71,1.71,0,0,1-.74.29Z" transform="translate(-515.02 -316)"/>
      </g>
      <line class="cls-4" x1="136.36"/>
    </g>
  </g>
</svg>
