<svg xmlns="http://www.w3.org/2000/svg" viewBox="0 0 136.36 3.79" preserveAspectRatio = "none">
  <defs>
    <style>
      .cls-1 {
        isolation: isolate;
      }

      .cls-2 {
        fill: #cfcfcf;
        mix-blend-mode: multiply;
      }

      .cls-3 {
        fill: #fff;
      }
    </style>
  </defs>
  <title>Untitled-1</title>
  <g class="cls-1">
    <g id="Layer_1" data-name="Layer 1">
      <g>
        <polygon class="cls-2" points="136.36 0.62 136.36 3.79 0 3.79 0 0.06 1.15 0 2.95 0.08 4.78 0.23 6.57 0.08 8.23 0.29 10.02 0.2 11.73 0.33 13.07 0.86 15.06 0.7 16.47 1.12 18.39 1.06 19.89 1.39 21.19 1.94 23.03 1.71 24.54 1.6 26.23 1.91 28 2.02 29.16 1.24 30.87 1.24 32.72 1.58 34.28 1.25 35.87 0.92 37.59 0.97 39.33 1.22 40.94 0.75 42.65 0.95 44.33 1.19 45.99 1.29 47.66 1.24 49.38 1.02 51.02 1.2 52.76 1.05 54.65 0.97 56.39 1.57 58.39 1.35 60.07 1.76 62.02 1.91 63.76 2.19 65.42 2.1 67.04 2.02 68.72 2.25 70.38 2.16 72.08 2.22 73.68 1.99 75.37 1.98 76.97 1.76 78.66 1.48 80.66 1.74 82.43 1.56 84.16 1.34 85.88 1.13 87.55 0.85 89.24 0.56 91.18 0.7 92.89 0.38 94.76 0.64 96.65 0.52 98.5 0.42 100.35 0.45 102.12 0.63 103.84 0.84 105.15 1.31 106.8 1.62 108.67 1.61 110.23 1.42 112 1.85 113.49 1.52 115.18 1.56 116.64 1.25 118.34 1.28 120.03 1.23 121.77 1.02 123.42 1.46 125.16 1.17 126.84 1.01 128.67 1.41 130.38 1.22 132.29 1.09 133.78 0.58 135.66 0.45 136.36 0.62"/>
        <polygon class="cls-3" points="136.36 1.42 136.36 3.79 0 3.79 0 0.87 1.15 0.81 2.95 0.89 4.78 1.04 6.57 0.89 8.23 1.1 10.02 1.01 11.73 1.14 13.07 1.67 15.06 1.51 16.47 1.93 18.39 1.87 19.89 2.2 21.19 2.75 23.03 2.52 24.54 2.41 26.23 2.72 28 2.82 29.16 2.05 30.87 2.05 32.72 2.38 34.28 2.06 35.87 1.73 37.59 1.77 39.33 2.03 40.94 1.56 42.65 1.75 44.33 2 45.99 2.09 47.66 2.05 49.38 1.83 51.02 2 52.76 1.86 54.65 1.77 56.39 2.37 58.39 2.16 60.07 2.57 62.02 2.72 63.76 3 65.42 2.9 67.04 2.83 68.72 3.05 70.38 2.97 72.08 3.02 73.68 2.8 75.37 2.79 76.97 2.57 78.66 2.29 80.66 2.54 82.43 2.37 84.16 2.15 85.88 1.93 87.55 1.66 89.24 1.37 91.18 1.51 92.89 1.19 94.76 1.45 96.65 1.33 98.5 1.23 100.35 1.25 102.12 1.44 103.84 1.64 105.15 2.12 106.8 2.43 108.67 2.42 110.23 2.23 112 2.66 113.49 2.33 115.18 2.37 116.64 2.06 118.34 2.09 120.03 2.04 121.77 1.83 123.42 2.27 125.16 1.97 126.84 1.82 128.67 2.22 130.38 2.03 132.29 1.9 133.78 1.38 135.66 1.25 136.36 1.42"/>
      </g>
    </g>
  </g>
</svg>
